<svg width="21" height="21" viewBox="0 0 21 21" fill="none" xmlns="http://www.w3.org/2000/svg">
<path d="M9.68971 4.09839H4.0173C3.58746 4.09839 3.17523 4.26995 2.8713 4.57534C2.56736 4.88073 2.39661 5.29493 2.39661 5.72681V17.1258C2.39661 17.5576 2.56736 17.9718 2.8713 18.2772C3.17523 18.5826 3.58746 18.7542 4.0173 18.7542H15.3621C15.792 18.7542 16.2042 18.5826 16.5081 18.2772C16.8121 17.9718 16.9828 17.5576 16.9828 17.1258V11.4263" stroke="white" stroke-width="2" stroke-linecap="round" stroke-linejoin="round"/>
<path d="M15.7673 2.8771C16.0897 2.55319 16.5269 2.37122 16.9828 2.37122C17.4387 2.37122 17.8759 2.55319 18.1983 2.8771C18.5207 3.20101 18.7018 3.64033 18.7018 4.09842C18.7018 4.5565 18.5207 4.99582 18.1983 5.31973L10.5 13.0547L7.25867 13.8689L8.06901 10.6121L15.7673 2.8771Z" stroke="white" stroke-width="2" stroke-linecap="round" stroke-linejoin="round"/>
</svg>
