<svg width="67" height="67" viewBox="0 0 67 67" fill="none" xmlns="http://www.w3.org/2000/svg">
<path d="M33.3691 3.22072C25.4793 3.14054 17.8804 6.19624 12.2425 11.7162C6.60459 17.2363 3.38903 24.7689 3.30249 32.6587C3.33289 38.8939 5.33867 44.959 9.03172 49.9829C12.7248 55.0069 17.9151 58.7311 23.8571 60.6206C25.3605 60.894 25.9071 59.992 25.9071 59.1993C25.9071 58.4066 25.9071 56.6573 25.9071 54.1973C17.5431 55.974 15.7665 50.2613 15.7665 50.2613C15.2097 48.468 14.026 46.935 12.4318 45.9427C9.69848 44.1387 12.6505 44.166 12.6505 44.166C13.5953 44.2923 14.4992 44.6309 15.2945 45.1563C16.0897 45.6818 16.7557 46.3805 17.2425 47.2C18.0907 48.6709 19.4825 49.7499 21.1184 50.2049C22.7542 50.6598 24.5033 50.4543 25.9891 49.6327C26.1419 48.1358 26.8198 46.7415 27.9025 45.6967C21.2331 44.9587 14.2358 42.444 14.2358 31.1553C14.1762 28.2107 15.2642 25.3583 17.2698 23.2014C16.3564 20.6732 16.4643 17.8886 17.5705 15.4387C17.5705 15.4387 20.1125 14.646 25.7705 18.4454C30.6956 17.1329 35.8786 17.1329 40.8038 18.4454C46.5438 14.646 49.0038 15.4387 49.0038 15.4387C50.11 17.8886 50.2178 20.6732 49.3044 23.2014C51.3566 25.3187 52.5037 28.152 52.5024 31.1007C52.5024 42.4167 45.4504 44.904 38.8358 45.642C39.5601 46.3452 40.1195 47.2001 40.474 48.1454C40.8285 49.0906 40.9691 50.1026 40.8858 51.1087V59.172C40.8858 59.172 41.4324 60.894 42.9358 60.5933C48.861 58.692 54.0338 54.9669 57.7154 49.9501C61.397 44.9333 63.3991 38.8813 63.4357 32.6587C63.3492 24.7689 60.1336 17.2363 54.4958 11.7162C48.8579 6.19624 41.259 3.14054 33.3691 3.22072Z" fill="#231F20"/>
</svg>
