<svg width="50" height="52" viewBox="0 0 50 52" fill="none" xmlns="http://www.w3.org/2000/svg">
<path d="M11.5653 1.7934C8.45629 2.10074 6.36356 2.79535 4.80159 4.36522C2 7.18096 2 11.7128 2 20.7766V30.3901C2 39.4539 2 43.9857 4.80159 46.8016C7.6032 49.6172 12.1123 49.6172 21.1305 49.6172H25.9131C34.9312 49.6172 39.4405 49.6172 42.2421 46.8016C44.7846 44.2461 45.0197 40.305 45.0414 32.8229" stroke="#141B34" stroke-width="3.58679" stroke-linecap="round" stroke-linejoin="round"/>
<path d="M23.537 13.3562C23.3199 12.3899 22.3603 11.7824 21.394 11.9996C20.4277 12.2167 19.8201 13.1761 20.0372 14.1425L23.537 13.3562ZM42.1957 14.3003C42.4176 13.335 41.8148 12.3727 40.8495 12.1509C39.8841 11.9292 38.9219 12.5319 38.7 13.4973L42.1957 14.3003ZM38.4913 22.4165L36.7433 22.015L36.7414 22.0233L38.4913 22.4165ZM47.9307 10.7847C47.9307 9.7942 47.1278 8.99128 46.1373 8.99128C45.1469 8.99128 44.3439 9.7942 44.3439 10.7847H47.9307ZM44.3439 21.9691C44.3439 22.9595 45.1469 23.7625 46.1373 23.7625C47.1278 23.7625 47.9307 22.9595 47.9307 21.9691H44.3439ZM18.1406 9.26586C18.1406 9.59939 18.0164 9.79195 18.0142 9.79558C18.0039 9.8122 18.0319 9.76452 18.1461 9.65329C18.3742 9.43095 18.7661 9.12701 19.3364 8.75771C20.4631 8.02823 22.0447 7.19751 23.7639 6.40705C25.4751 5.62033 27.2687 4.89795 28.7983 4.37641C29.5638 4.11541 30.2443 3.91115 30.8036 3.77411C31.3935 3.62961 31.7431 3.58679 31.8899 3.58679V0C31.301 0 30.6128 0.128024 29.9502 0.290338C29.2572 0.460137 28.4705 0.698658 27.6408 0.981536C25.9801 1.54775 24.0721 2.31752 22.2656 3.14824C20.4669 3.97524 18.7147 4.88731 17.3871 5.74692C16.7303 6.17217 16.1149 6.62434 15.6425 7.08479C15.4064 7.31496 15.1609 7.59038 14.9646 7.90738C14.7764 8.21142 14.5538 8.68167 14.5538 9.26586H18.1406ZM49.226 9.26586C49.226 8.68167 49.0034 8.21142 48.8152 7.90738C48.6189 7.59038 48.3733 7.31496 48.1373 7.08479C47.6648 6.62434 47.0496 6.17217 46.3927 5.74692C45.0651 4.88731 43.3129 3.97524 41.5142 3.14824C39.7077 2.31752 37.7997 1.54775 36.139 0.981536C35.3093 0.698658 34.5226 0.460137 33.8296 0.290338C33.167 0.128024 32.4789 0 31.8899 0V3.58679C32.0367 3.58679 32.3863 3.62961 32.9762 3.77411C33.5355 3.91115 34.2161 4.11541 34.9815 4.37641C36.5111 4.89795 38.3048 5.62033 40.0159 6.40705C41.7352 7.19751 43.3167 8.02823 44.4434 8.75771C45.0137 9.12701 45.4056 9.43095 45.6337 9.65329C45.7478 9.76452 45.776 9.8122 45.7657 9.79558C45.7634 9.79195 45.6392 9.59939 45.6392 9.26586H49.226ZM45.6392 9.26586C45.6392 8.93234 45.7634 8.73978 45.7657 8.73614C45.776 8.71953 45.7478 8.76721 45.6337 8.87844C45.4056 9.10078 45.0137 9.40475 44.4434 9.77402C43.3167 10.5035 41.7352 11.3342 40.0159 12.1247C38.3048 12.9114 36.5111 13.6338 34.9815 14.1553C34.2161 14.4163 33.5355 14.6206 32.9762 14.7576C32.3863 14.9021 32.0367 14.9449 31.8899 14.9449V18.5317C32.4789 18.5317 33.167 18.4037 33.8296 18.2414C34.5226 18.0716 35.3093 17.8331 36.139 17.5502C37.7997 16.984 39.7077 16.2142 41.5142 15.3835C43.3129 14.5565 45.0651 13.6444 46.3927 12.7848C47.0496 12.3596 47.6648 11.9074 48.1373 11.4469C48.3733 11.2168 48.6189 10.9413 48.8152 10.6243C49.0034 10.3203 49.226 9.85006 49.226 9.26586H45.6392ZM14.5538 9.26586C14.5538 9.85006 14.7764 10.3203 14.9646 10.6243C15.1609 10.9413 15.4064 11.2168 15.6425 11.4469C16.1149 11.9074 16.7303 12.3596 17.3871 12.7848C18.7147 13.6444 20.4669 14.5565 22.2656 15.3835C24.0721 16.2142 25.9801 16.984 27.6408 17.5502C28.4705 17.8331 29.2572 18.0716 29.9502 18.2414C30.6128 18.4037 31.301 18.5317 31.8899 18.5317V14.9449C31.7431 14.9449 31.3935 14.9021 30.8036 14.7576C30.2443 14.6206 29.5638 14.4163 28.7983 14.1553C27.2687 13.6338 25.4751 12.9114 23.7639 12.1247C22.0447 11.3342 20.4631 10.5035 19.3364 9.77402C18.7661 9.40475 18.3742 9.10078 18.1461 8.87844C18.0319 8.76721 18.0039 8.71953 18.0142 8.73614C18.0164 8.73978 18.1406 8.93234 18.1406 9.26586H14.5538ZM20.0372 14.1425L21.9846 22.8096L25.4841 22.0233L23.537 13.3562L20.0372 14.1425ZM38.7 13.4973L36.7433 22.015L40.239 22.8179L42.1957 14.3003L38.7 13.4973ZM23.6714 25.3952C25.7704 26.8414 28.4985 27.4987 31.1128 27.4987C33.7271 27.4987 36.4552 26.8414 38.5542 25.3952L36.519 22.4418C35.1601 23.378 33.1933 23.9119 31.1128 23.9119C29.0322 23.9119 27.0654 23.378 25.7065 22.4418L23.6714 25.3952ZM36.7414 22.0233C36.6811 22.2919 36.5733 22.4043 36.519 22.4418L38.5542 25.3952C39.5264 24.7252 40.0345 23.7283 40.2409 22.8096L36.7414 22.0233ZM21.9846 22.8096C22.191 23.7283 22.6991 24.7252 23.6714 25.3952L25.7065 22.4418C25.6522 22.4043 25.5444 22.2919 25.4841 22.0233L21.9846 22.8096ZM44.3439 10.7847V21.9691H47.9307V10.7847H44.3439Z" fill="#141B34"/>
</svg>
