<svg width="60" height="60" viewBox="0 0 60 60" fill="none" xmlns="http://www.w3.org/2000/svg">
<path d="M30 0C13.5 0 0 13.5 0 30C0 46.5 13.5 60 30 60C46.5 60 60 46.5 60 30C60 13.5 46.5 0 30 0ZM49.5 19H42C41.5 15.5 41 12.5 40 10C43.5 11.5 47 15 49.5 19ZM52.5 30C52.5 31.5 52.5 32.5 52 34H42.5C42.5 33 42.5 31.5 42.5 30C42.5 28.5 42.5 27.5 42.5 26H52C52.5 27.5 52.5 28.5 52.5 30ZM30 52.5C29 51.5 27 48 26 41.5H34C33 47.5 31 51.5 30 52.5ZM25 34C25 32.5 25 31.5 25 30C25 28.5 25 27.5 25 26H35V30C35 30 35 32.5 35 34H25ZM7.5 30C7.5 28.5 7.5 27.5 8 26H17.5V30C17.5 30 17.5 32.5 17.5 34H8C7.5 32.5 7.5 31.5 7.5 30ZM30 7.5C31 8 33 12 34 18.5H26C27 12 29 8 30 7.5ZM20.5 9.5C19.5 12.5 19 15.5 18.5 19H10.5C13 15 16.5 11.5 20.5 9.5ZM10.5 41H18C18.5 44.5 19 47.5 20 50C16.5 48.5 13 45 10.5 41ZM39.5 50.5C40.5 48 41 45 41.5 41.5H49C47 45 43.5 48.5 39.5 50.5Z" fill="black"/>
</svg>
