<svg width="101" height="101" viewBox="0 0 101 101" fill="none" xmlns="http://www.w3.org/2000/svg">
<circle cx="50.5" cy="50.5" r="50.5" fill="#65B765"/>
<path d="M64.5886 22C63.2816 22.0726 61.9745 22.2178 60.7401 22.6535C58.7794 23.3797 56.8915 24.4689 55.2939 26.0664C54.8343 26.3578 54.446 26.7488 54.1578 27.2105C53.8697 27.6722 53.689 28.1927 53.6291 28.7336C53.5693 29.2746 53.6318 29.822 53.812 30.3355C53.9923 30.849 54.2857 31.3154 54.6705 31.7003C55.0554 32.0851 55.5218 32.3785 56.0353 32.5588C56.5488 32.739 57.0962 32.8015 57.6372 32.7417C58.1781 32.6818 58.6986 32.5011 59.1603 32.213C59.622 31.9248 60.013 31.5365 60.3044 31.0769C61.1031 30.2781 62.0471 29.8424 63.0637 29.4793C65.6053 28.608 68.7277 28.971 70.7609 31.0769C73.5929 33.9088 73.5929 38.6288 70.7609 41.5334L59.8687 52.4256C56.6736 55.6207 54.0595 55.9112 52.1715 55.8385C50.2835 55.7659 49.1943 54.8945 49.1943 54.8945C48.7747 54.6562 48.3123 54.5027 47.8334 54.443C47.3545 54.3834 46.8686 54.4186 46.4033 54.5467C45.9381 54.6748 45.5026 54.8933 45.1218 55.1897C44.741 55.4861 44.4223 55.8546 44.1839 56.2742C43.9455 56.6938 43.792 57.1562 43.7323 57.6351C43.6727 58.114 43.7079 58.5999 43.836 59.0652C43.9641 59.5304 44.1826 59.9659 44.479 60.3467C44.7754 60.7276 45.144 61.0463 45.5635 61.2847C45.5635 61.2847 48.0324 62.8822 51.6632 63.1C55.2939 63.3179 60.377 61.9382 64.8065 57.4361L75.6987 46.5438C81.3627 40.8799 81.3627 31.7304 75.6987 26.139C73.6655 24.1058 71.2692 22.8714 68.6551 22.2905C67.348 22 65.8957 22 64.5886 22.0726V22ZM50.0657 38.774C46.4349 38.6288 41.4245 39.8633 37.1402 44.2202L26.248 55.1124C20.584 60.7764 20.584 69.9258 26.248 75.5172C30.3144 79.5836 36.1236 80.7454 41.2066 78.9301C43.1672 78.2039 45.0552 77.1147 46.6528 75.5172C47.1124 75.2258 47.5007 74.8348 47.7888 74.3731C48.077 73.9115 48.2577 73.3909 48.3176 72.85C48.3774 72.3091 48.3149 71.7616 48.1346 71.2481C47.9544 70.7346 47.661 70.2682 47.2762 69.8833C46.8913 69.4985 46.4249 69.2051 45.9114 69.0249C45.3979 68.8446 44.8504 68.7821 44.3095 68.8419C43.7686 68.9018 43.248 69.0825 42.7864 69.3707C42.3247 69.6588 41.9337 70.0471 41.6423 70.5068C40.8436 71.3055 39.8996 71.7412 38.883 72.1043C36.3414 72.9757 33.219 72.6126 31.1858 70.5068C28.3538 67.6748 28.3538 62.9548 31.1858 60.0502L42.078 49.158C44.9826 46.2534 47.5241 45.8903 49.5574 45.9629C51.5906 46.0355 52.9703 46.6165 52.9703 46.6165C53.3957 46.9355 53.886 47.1573 54.4066 47.266C54.9272 47.3746 55.4653 47.3677 55.9829 47.2455C56.5005 47.1233 56.9849 46.8889 57.4019 46.5589C57.8189 46.2288 58.1583 45.8112 58.3961 45.3356C58.634 44.8599 58.7644 44.3378 58.7782 43.8062C58.792 43.2746 58.6889 42.7464 58.4761 42.259C58.2633 41.7717 57.946 41.337 57.5467 40.9857C57.1474 40.6345 56.6758 40.3752 56.1653 40.2263C56.1653 40.2263 53.6964 38.774 50.0657 38.6288V38.774Z" fill="white"/>
</svg>
